<svg height="681pt" viewBox="-21 -21 681.33528 681" width="681pt" xmlns="http://www.w3.org/2000/svg" xmlns:xlink="http://www.w3.org/1999/xlink"><linearGradient id="linear0" gradientTransform="matrix(1.108951 0 0 -1.108951 .00014 627.751409)" gradientUnits="userSpaceOnUse" x1="287.9976" x2="287.9976" y1="566.001" y2="-9.9926"><stop offset="0" stop-color="#f5085d"/><stop offset=".017" stop-color="#f6115f"/><stop offset=".0867" stop-color="#f93368"/><stop offset=".1583" stop-color="#fc4d6f"/><stop offset=".2317" stop-color="#fe5f73"/><stop offset=".3078" stop-color="#ff6a76"/><stop offset=".3911" stop-color="#ff6e77"/><stop offset=".6374" stop-color="#b53b92"/><stop offset=".8253" stop-color="#8218a4"/><stop offset=".9175" stop-color="#6f0bab"/></linearGradient><path d="m60.9375 184.195312c-2.46875-4.929687-.46875-10.925781 4.460938-13.390624 4.945312-2.457032 10.929687-.457032 13.394531 4.464843l9.980469 19.960938c2.464843 4.929687.46875 10.925781-4.464844 13.390625-1.433594.710937-2.957032 1.054687-4.453125 1.054687-3.664063 0-7.1875-2.019531-8.9375-5.519531zm59.882812 19.960938c1.75 3.5 5.273438 5.519531 8.9375 5.519531 1.496094 0 3.019532-.34375 4.453126-1.054687 4.933593-2.464844 6.929687-8.460938 4.464843-13.390625l-9.980469-19.960938c-2.460937-4.921875-8.445312-6.921875-13.394531-4.464843-4.929687 2.464843-6.929687 8.460937-4.460937 13.390624zm68.808594-34.402344c0-5.519531 4.46875-9.980468 9.980469-9.980468 5.535156 0 11.09375-1.257813 16.074219-3.628907 4.152344-1.871093 7.761718-4.382812 10.90625-7.523437l1.792968-1.792969c1.898438-1.898437 3.921876-3.65625 6.046876-5.257813.832031-.628906 1.753906-1.121093 2.617187-1.699218 1.351563-.90625 2.660156-1.863282 4.078125-2.652344.570312-.316406 1.199219-.53125 1.78125-.828125 1.785156-.910156 3.574219-1.824219 5.453125-2.550781 2.488281-.957032 5.050781-1.742188 7.671875-2.351563 4.347656-1.09375 8.921875-1.65625 13.441406-1.65625h19.960938c5.511718 0 9.980468 4.460938 9.980468 9.980469 0 5.515625-4.46875 9.980469-9.980468 9.980469h-5.402344c3.414062 5.910156 5.402344 12.707031 5.402344 19.960937 0 22.015625-17.910156 39.921875-39.921875 39.921875-18.964844 0-34.8125-13.324219-38.859375-31.082031-3.628906.710938-7.332032 1.140625-11.042969 1.140625-5.511719 0-9.980469-4.464844-9.980469-9.980469zm79.84375 0c0-7.910156-4.535156-14.835937-11.519531-18.019531-.28125.089844-.570313.167969-.847656.261719-2.453125.820312-4.808594 1.863281-7.03125 3.164062-.394531.230469-.761719.503906-1.152344.746094-2.292969 1.464844-4.488281 3.097656-6.425781 5.035156l-1.792969 1.792969c-2.15625 2.160156-4.503906 4.046875-6.9375 5.804687-.667969.480469-1.347656.9375-2.035156 1.390626-.710938.464843-1.382813 1.007812-2.117188 1.441406.832031 10.253906 9.4375 18.34375 19.898438 18.34375 11.007812 0 19.960937-8.957032 19.960937-19.960938zm369.230469 338.339844c.417969 4.203125-1.847656 8.207031-5.660156 10.011719-1.226563.582031-2.519531.800781-3.820313.859375-.148437.007812-.296875.105468-.445312.105468-.214844 0-.417969-.113281-.628906-.128906-.84375-.054687-1.648438-.21875-2.453126-.480468-.339843-.113282-.675781-.191407-1.003906-.335938-1.082031-.488281-2.105468-1.113281-2.976562-1.980469l-28.996094-28.996093-57.515625-32.863282-11.492187 42.140625c-10.347657 37.933594-34.058594 70.828125-66.761719 92.632813l-21.871094 14.582031c-3.921875 2.609375-7.957031 4.988281-12.046875 7.234375-1.277344.703125-2.578125 1.335938-3.871094 2-2.914062 1.503906-5.863281 2.921875-8.847656 4.246094-1.453125.636718-2.90625 1.269531-4.378906 1.871094-3.15625 1.28125-6.351563 2.441406-9.574219 3.523437-1.195313.398437-2.367187.851563-3.574219 1.226563-4.332031 1.339843-8.707031 2.5-13.125 3.46875-1.191406.265624-2.394531.433593-3.582031.667968-3.335937.652344-6.671875 1.222656-10.039063 1.667969-1.667968.214844-3.335937.382813-5.007812.550781-3.050781.300782-6.105469.515625-9.179688.648438-1.628906.066406-3.246093.15625-4.878906.175781-.679687.007813-1.355468.078125-2.035156.078125-2.421875 0-4.859375-.195312-7.285156-.304688-1.742188-.078124-3.476563-.078124-5.214844-.214843-4.8125-.363281-9.625-.910157-14.4375-1.714844-40.890625-6.8125-80.433594-19.675781-117.515625-38.21875l-18.226563-9.113281-32.875 39.441406c-9.503906 11.40625-23.480468 17.953125-38.335937 17.953125h-51.164063c-4.398437 0-8.277343-2.875-9.550781-7.085937-1.277343-4.207032.355469-8.761719 4.015625-11.195313 17.476563-11.648437 30.75-29.035156 37.386719-48.957031l6.765625-20.289063-22.957031 15.890625c-.449219.3125-.957031.46875-1.4375.699219-.402344.1875-.761719.441406-1.1875.578125-.953125.308594-1.9375.46875-2.933594.476562-.039063.007813-.070313.019532-.109375.019532h-.015625c-.457031 0-.917969-.027344-1.382813-.097656-.238281-.03125-.429687-.167969-.664062-.21875-.683594-.140626-1.335938-.363282-1.984375-.65625-.417969-.191407-.824219-.367188-1.203125-.605469-.183594-.117188-.398438-.160157-.578125-.285157-.390625-.285156-.660156-.664062-1-.984374-.308594-.300782-.628906-.558594-.898437-.886719-.503907-.625-.886719-1.324219-1.222657-2.042969-.128906-.273438-.3125-.503906-.414062-.785156-.382813-1.046875-.585938-2.148438-.605469-3.273438 0-.046875-.023438-.089844-.023438-.136718v-79.84375c0-1.726563.535157-3.378907 1.375-4.871094l-7.542968-15.089844h-23.773438c-4.078125 0-7.753906-2.488281-9.269531-6.277344l-19.960937-49.902344c-1.386719-3.480468-.71484425-7.445312 1.75-10.265624 2.46875-2.824219 6.292968-4.054688 9.941406-3.117188l79.84375 19.960938c1.535156.378906 2.960937 1.121093 4.152344 2.171874l5.246093 4.585938 23.273438-33.25-9.617188-4.804688c-.957031-.476562-1.835937-1.109374-2.589843-1.871093l-59.882813-59.882813c-1.097656-1.089844-1.921875-2.425781-2.414063-3.902344l-9.753906-29.265624-19.644531-39.289063c-.273437-.554687-.5-1.128906-.667969-1.722656l-11.734375-41.074219c-5.71875-19.988281-8.613281-40.671875-8.613281-61.46875 0-4.824219 3.453125-8.957031 8.199219-9.816406l109.785156-19.960938c9.144531-1.660156 18.308594-3.117187 27.484375-4.371094 3.589844-.488281 7.183594-.808593 10.777344-1.234374 5.589844-.667969 11.179687-1.386719 16.777344-1.898438 4.261718-.390625 8.53125-.59375 12.796874-.898438 4.929688-.351562 9.867188-.773437 14.804688-1.003906 4.507812-.207031 9.015625-.238281 13.527344-.351562 4.707031-.117188 9.410156-.304688 14.117187-.316406 4.566407-.007813 9.128907.164062 13.695313.25 4.65625.097656 9.316406.117187 13.976562.316406 4.496094.195312 8.992188.554687 13.488282.84375 4.738281.304687 9.480468.550781 14.214843.964844 4.324219.378906 8.640625.921874 12.964844 1.386718 4.910156.53125 9.828125 1.019532 14.734375 1.667969 4.058594.542969 8.109375 1.222656 12.164062 1.847656 4.332032.65625 8.675782 1.21875 13.003907 1.96875l5.859375-4.882812c34.296875-28.578125 72.691406-51.472657 114.125-68.042969l14.585937-5.835938c50.394531-20.144531 103.445313-30.3593745 157.6875-30.3593745 1.105469 0 2.164063.2265625 3.179688.5703125.320312.109375.609375.269531.914062.414062.667969.300782 1.289063.65625 1.871094 1.101563.296875.222656.570313.445313.84375.699219.53125.503906.980469 1.066406 1.394531 1.683594.191406.28125.402344.53125.566406.832031.058594.113281.148438.195312.207032.3125.425781.875.707031 1.792969.863281 2.722656 0 .019531.011719.03125.015625.042969.015625.09375-.019531.183594-.003906.273437.125.972657.101562 1.941407-.054688 2.902344-.058594.347656-.160156.675781-.253906 1.015625-.191406.6875-.4375 1.339844-.769531 1.980469-.179688.339843-.355469.667969-.570313.984375-.136718.199218-.210937.421875-.355468.613281l-64.894532 82.59375c-28.308594 36.03125-49.222656 76.527344-62.1875 120.425781l26.554688 70.808594c.097656.019531.191406.066406.289062.078125 2.894532.464844 5.695313 1.242187 8.410156 2.226563.453126.164062.902344.3125 1.351563.488281 2.625 1.046875 5.136719 2.335937 7.523437 3.839843.414063.265626.8125.539063 1.222657.816407 2.367187 1.601562 4.609375 3.394531 6.660156 5.433593.269531.261719.503906.550782.761719.816407 2.109375 2.203125 4.074218 4.582031 5.753906 7.21875l32.570312 51.179687c18.214844 28.625 29.632813 61.605469 33.015626 95.386719zm-38.324219-478.046875-38.878906 12.960937c-12.328125 4.113282-24.34375 9.335938-35.714844 15.554688l-48.039062 26.191406c-24.074219 13.132813-44.886719 30.523438-62.429688 51.34375 31.039063 14.140625 58.605469 35.378906 80.078125 61.910156 13.808594-40.351562 34.140625-77.796874 60.636719-111.519531zm-136.464844 24.773437c-9.660156 3.867188-19.132812 8.109376-28.433593 12.6875-3.019531 1.484376-5.90625 3.214844-8.886719 4.769532-6.199219 3.25-12.414062 6.464844-18.429688 10.027344-3.441406 2.039062-6.730468 4.320312-10.113281 6.457031-5.375 3.398437-10.777343 6.75-15.984375 10.40625-3.5 2.453125-6.847656 5.132812-10.273437 7.699219-4.050781 3.035156-8.097657 6.074218-12.046875 9.265624l35.910156 11.972657c19.953125-25.027344 44.324219-45.488281 72.535156-60.878907l48.03125-26.1875c7.332032-4.011718 14.921875-7.632812 22.675782-10.863281-2.480469.566407-4.953126 1.179688-7.421876 1.792969-2.183593.542969-4.371093 1.042969-6.539062 1.625-3.21875.855469-6.414062 1.808594-9.617188 2.742188-2.007812.585937-4.023437 1.132812-6.027343 1.75-3.460938 1.074218-6.894531 2.246093-10.335938 3.417968-1.714843.582032-3.445312 1.109375-5.15625 1.71875-5.132812 1.8125-10.230469 3.734375-15.300781 5.761719zm-436.109374 140.984376 9.667968 33.832031h239.933594l50.367188-21.589844c13.363281-5.730469 28.460937-6.941406 42.558593-3.402344 16.164063 4.035157 30.164063 13.898438 39.410157 27.769531l24.761718 37.144532h54.539063c1.546875 0 3.074219.359375 4.460937 1.050781l17.1875 8.597656-20.613281-54.972656c-24.511719-36.308594-60.839844-63.898437-102.40625-77.757813l-50.78125-16.917968c-2.148437-.386719-4.3125-.660156-6.46875-1.023438-6.734375-1.144531-13.472656-2.28125-20.226563-3.191406-3.050781-.414062-6.113281-.675781-9.167968-1.039062-5.90625-.707032-11.808594-1.453126-17.714844-1.984376-3.890625-.351562-7.785156-.519531-11.679688-.792968-5.09375-.355469-10.175781-.796875-15.269531-1.023438-4.714843-.210937-9.433593-.21875-14.152343-.316406-4.277344-.09375-8.554688-.285156-12.828126-.285156-5.523437 0-11.039062.21875-16.554687.375-3.484375.09375-6.964844.085937-10.445313.242187-6.347656.285157-12.691406.796875-19.03125 1.285157-2.648437.203124-5.304687.300781-7.957031.546874-7.300781.65625-14.589843 1.542969-21.875 2.46875-1.691406.214844-3.386719.347657-5.078125.574219-8.976562 1.222657-17.945312 2.644531-26.890625 4.269531l-101.417969 18.441407c.65625 16.140625 3.226563 32.144531 7.671876 47.699219zm40.800781 108.285156 31.199219 31.199218 32.867187-32.867187c3.898437-3.898437 10.214844-3.898437 14.113281 0l32.863282 32.867187 32.867187-32.867187c1.949219-1.949219 4.503906-2.921875 7.054687-2.921875 2.554688 0 5.101563.972656 7.050782 2.921875l32.867187 32.867187 32.867188-32.867187c2.820312-2.824219 7.058593-3.691406 10.761719-2.210937l36.214843 14.484374v-41.269531l-46.746093 15.574219c-1.015626.34375-2.085938.519531-3.15625.519531h-225.679688zm57.074219 57.066406 16.402343 8.207031h153.199219l36.273438-36.277343-29.738282-11.890626-35.265625 35.261719c-1.949219 1.949219-4.503906 2.925781-7.058593 2.925781-2.550782 0-5.105469-.976562-7.054688-2.925781l-32.867188-32.863281-32.863281 32.863281c-3.898437 3.898438-10.214843 3.898438-14.113281 0l-32.867188-32.863281-25.808593 25.808594zm89.109374 91.796875c-5.90625 12.792969-14.371093 24.332031-24.792968 33.816406 29.886718 11.710938 62.484375 14.03125 93.546875 6.519531l-10.671875-16.003906-47.027344-18.8125zm-134.945312 34.785156.382812-1.332031c.328126-1.175781.875-2.289062 1.613282-3.261719l7.828125-10.449219c.027343-.03125.046875-.070312.070312-.097656l32.488281-43.3125 16.359376-21.808594-2.058594-6.183593-56.683594 80.964843zm7.296875 47.164063 80.832031-55.960938c12.617188-8.742187 22.703125-20.914062 29.011719-34.863281l-44.292969-22.144531-18.890625 25.179687-28.132812 37.515625c-4.476563 6-7.792969 12.691406-9.835938 19.886719zm-27.257813-95.675782c3.78125 0 7.238282 2.132813 8.929688 5.515626l5.375 10.757812 15.902344-22.738281-5.027344-4.402344-58.566406-14.640625 10.207031 25.507812zm43.734376 179.648438 47.144531-94.289062c2.222656-4.445313 7.367187-6.589844 12.085937-5 19.257813 6.414062 39.222656 10.945312 59.335938 13.460937l17.203125 2.144531c17.976562 2.257813 36.457031-1.648437 52.023437-10.976562 13.300782-7.980469 24.003906-19.542969 30.949219-33.429688l2.007813-4.015625-23.832032-3.96875 7.183594 10.769531c1.726562 2.59375 2.144531 5.828126 1.136719 8.773438-1.007813 2.945312-3.335938 5.253906-6.289063 6.226562-40.9375 13.65625-85.308594 11.804688-124.984375-5.195312l-6.070312-2.601562-55.492188 38.433593 2.679688 5.308594c1.195312 2.378906 1.394531 5.128906.554687 7.652344l-8.582031 25.742187c-5.0625 15.195313-13.316406 29.171875-24.027344 40.964844zm105.792968-46.179688c22.097656 11.042969 45.183594 19.710938 68.855469 26.4375.402344-.050781.769531-.226562 1.1875-.226562h39.921875c22.632812.84375 43.28125-9.101562 65-19.765625l1.332031-.652344c7.976563-3.925781 15.632813-8.609375 22.746094-13.945312 26.917969-20.195313 45.90625-49.363281 53.476563-82.148438l17.386718-75.351562c.949219-4.105469 4.367188-7.175781 8.546875-7.671875 4.113281-.496094 8.222657 1.675781 10.109375 5.449218l8.128906 16.265626 26.023438 8.675781c.375.121093.640625.394531.988281.554687.257813.121094.554688.097656.804688.242188l50.097656 28.628906c-8.238281-28.992188-22.871094-55.789062-43.199219-78.375-29.382812-32.648438-71.425781-51.371094-115.355468-51.371094h-6.273438c-3.078125 0-5.980469-1.414062-7.867188-3.839844-1.890624-2.417968-2.5625-5.578124-1.816406-8.558593l8.90625-35.644531-25.277344-37.917969c-6.484374-9.722657-16.304687-16.648438-27.644531-19.480469-9.859375-2.460938-20.46875-1.628906-29.851562 2.386719l-52.246094 22.394531c-1.242187.539062-2.582031.808594-3.929687.808594h-233.367188l9.980469 19.960937h231.742187l58.34375-19.441406c3.03125-1.042969 6.378906-.519531 8.992188 1.363281 2.605468 1.878906 4.144531 4.890625 4.144531 8.097656v69.863282c0 .078125-.023437.152344-.027344.230468-.011719.417969-.089843.824219-.152343 1.234376-.058594.398437-.09375.792968-.199219 1.179687-.082031.289063-.203125.5625-.3125.851563-.078125.203124-.15625.394531-.242188.589843-.121093.265625-.226562.535157-.367187.792969-.1875.335938-.433594.632812-.664063.945312-.25.351563-.492187.703126-.789062 1.019532-.0625.0625-.101563.152344-.167969.214844l-49.902344 49.902343c-1.871094 1.871094-4.410156 2.921875-7.058594 2.921875h-145.835937l4.292969 12.886719 56.183594 28.089844v.003906l19.960937 9.976563 48.152344 19.222656 58.8125 9.800781c3.121093.519531 5.8125 2.496094 7.25 5.3125 1.4375 2.828125 1.449219 6.160156.035156 8.996094l-8.050781 16.101562c-8.644532 17.289063-21.972656 31.6875-38.542969 41.617188-19.367187 11.617187-42.363281 16.460937-64.761719 13.664062l-17.199218-2.144531c-18.554688-2.316406-36.988282-6.246094-54.914063-11.695312l-35.875 71.75c1.863281-1.394532 3.601563-2.972657 5.125-4.800782l37.9375-45.523437c2.960937-3.550781 7.992187-4.613281 12.128906-2.535157zm295.042969-81.519531 12.398437-45.46875-20.984374-7c-1.09375-.359375-2.105469-.90625-2.996094-1.605469l-11.488282 49.773438c-8.628906 37.371094-30.277343 70.625-60.953124 93.636719-8.109376 6.082031-16.828126 11.421875-25.921876 15.894531l-1.335937.65625c-8.605469 4.21875-17.335937 8.484375-26.3125 12.121094 1.304687-.199219 2.605469-.402344 3.902344-.640625 2.363281-.445313 4.714843-.910157 7.054687-1.476563 2.222656-.527344 4.433594-1.117187 6.632813-1.753906 2.625-.765625 5.230469-1.625 7.8125-2.539062 1.933593-.6875 3.867187-1.359376 5.773437-2.125 2.9375-1.191407 5.824219-2.535157 8.695313-3.925782 1.515625-.730468 3.054687-1.390625 4.546875-2.175781 4.335937-2.292969 8.601562-4.761719 12.726562-7.515625l21.871094-14.582031c28.695312-19.132813 49.5-47.992188 58.578125-81.273438zm111.601563-8.910156-2.269532-22.730469c-3.074218-30.691406-13.441406-60.652344-29.996094-86.65625l-32.566406-51.175781c-4.867187-7.652344-13.191406-12.222656-22.257812-12.222656-1.417969 0-2.734375-.390625-3.976563-.941407-.15625-.070312-.332031-.035156-.488281-.113281l-37.808594-18.90625h-49.738281l-5.019531 20.078125c47.210937 1.753906 92.003906 22.613282 123.71875 57.859375 27.125 30.136719 45.222656 67.03125 52.464844 106.859375zm0 0" fill="url(#linear0)"/></svg>