<?xml version="1.0" encoding="iso-8859-1"?>
<!-- Generator: Adobe Illustrator 19.0.0, SVG Export Plug-In . SVG Version: 6.00 Build 0)  -->
<svg version="1.1" id="Capa_1" xmlns="http://www.w3.org/2000/svg" xmlns:xlink="http://www.w3.org/1999/xlink" x="0px" y="0px"
	 viewBox="0 0 512 512" style="enable-background:new 0 0 512 512;" xml:space="preserve">
<path style="fill:#F1F1F0;" d="M484.447,215.922c0-115.1-93.307-208.407-208.407-208.407S67.633,100.822,67.633,215.922
	l-40.078,80.157l40.078,24.047V440.36h80.157v64.125H404.29V380.199C453.079,342.054,484.447,282.653,484.447,215.922z"/>
<path style="fill:#FAD55A;" d="M372.228,193.348c0-53.073-43.065-96.098-96.188-96.098s-96.188,43.024-96.188,96.098
	c0,41.841,26.767,77.428,64.125,90.622v53.525h64.125V283.97C345.459,270.776,372.228,235.188,372.228,193.348z"/>
<path style="fill:#FEAD5A;" d="M268.024,336.157v-69.606c-37.358-13.206-64.125-48.827-64.125-90.707
	c0-28.193,12.13-53.552,31.454-71.145c-32.784,15.327-55.501,48.596-55.501,87.176c0,41.88,26.767,77.501,64.125,90.707v53.575
	H268.024z"/>
<path style="fill:#FF82A4;" d="M292.071,400.282h-32.063c-17.708,0-32.063-14.355-32.063-32.063v-56.11h96.188v56.11
	C324.134,385.927,309.779,400.282,292.071,400.282z"/>
<path style="fill:#F5577E;" d="M251.993,368.219v-56.11h-24.047v56.11c0,17.708,14.355,32.063,32.063,32.063h24.047
	C266.347,400.282,251.993,385.927,251.993,368.219z"/>
<polygon style="fill:#F1F1F0;" points="284.055,135.765 227.946,199.89 268.024,199.89 268.024,247.984 324.134,183.859 
	284.055,183.859 "/>
<path d="M428.719,63.243C387.937,22.46,333.714,0,276.04,0s-111.898,22.46-152.68,63.243
	c-40.362,40.362-62.777,93.883-63.235,150.892l-39.292,78.584c-1.756,3.512-0.512,7.784,2.855,9.804l36.43,21.858v115.98
	c0,4.15,3.365,7.515,7.515,7.515h72.642v56.611c0,4.15,3.365,7.515,7.515,7.515s7.515-3.365,7.515-7.515V440.36
	c0-4.15-3.365-7.515-7.515-7.515H75.147v-112.72c0-2.639-1.385-5.086-3.648-6.444l-34.112-20.467l36.966-73.932
	c0.522-1.044,0.794-2.193,0.794-3.361c0-110.772,90.12-200.892,200.892-200.892s200.892,90.12,200.892,200.892
	c0,62.247-28.164,119.965-77.27,158.356c-1.822,1.424-2.887,3.608-2.887,5.921v124.287c0,4.15,3.365,7.515,7.515,7.515
	s7.515-3.365,7.515-7.515V383.823c50.992-41.246,80.157-102.227,80.157-167.901C491.961,158.247,469.501,104.024,428.719,63.243z"/>
<path d="M360.271,252.373c2.424-3.369,1.658-8.065-1.711-10.488c-3.369-2.423-8.066-1.658-10.488,1.711
	c-10.661,14.816-25.349,25.847-42.474,31.901c-3.003,1.062-5.01,3.901-5.01,7.085v22.013h-49.096v-22.013
	c0-3.185-2.007-6.024-5.01-7.085c-35.359-12.498-59.115-46.104-59.115-83.621c0-48.894,39.779-88.673,88.673-88.673
	s88.673,39.779,88.673,88.673c0,7.513-0.94,14.973-2.793,22.174c-1.035,4.019,1.385,8.116,5.405,9.151
	c4.021,1.035,8.116-1.385,9.151-5.405c2.169-8.424,3.268-17.145,3.268-25.921c0-57.182-46.521-103.703-103.703-103.703
	s-103.703,46.521-103.703,103.703c0,42.078,25.555,79.948,64.125,95.874v16.845h-8.517c-4.15,0-7.515,3.365-7.515,7.515v56.11
	c0,21.823,17.755,39.577,39.577,39.577h32.063c21.823,0,39.577-17.755,39.577-39.577v-56.11c0-4.15-3.365-7.515-7.515-7.515h-8.517
	V287.75C333.503,280.378,348.862,268.229,360.271,252.373z M316.619,352.689h-80.658c-0.169,0-0.335,0.014-0.501,0.025v-9.043
	h81.159V352.689z M292.071,392.767h-32.063c-13.535,0-24.548-11.013-24.548-24.548v-0.526c0.166,0.011,0.332,0.025,0.501,0.025
	h80.658v0.501C316.619,381.755,305.606,392.767,292.071,392.767z M316.619,328.642H235.46v-9.018h8.517h64.125h8.517V328.642z"/>
<path d="M265.38,255.019c2.901,1.088,6.258,0.245,8.299-2.086l56.11-64.125c4.169-4.766,0.663-12.463-5.656-12.463h-32.564v-40.579
	c0-6.78-8.694-10.061-13.171-4.949l-56.11,64.125c-4.169,4.766-0.663,12.463,5.656,12.463h32.564v40.579
	C260.509,251.115,262.45,253.918,265.38,255.019z M244.506,192.376l32.035-36.611v28.094c0,4.15,3.365,7.515,7.515,7.515h23.518
	l-32.035,36.611V199.89c0-4.15-3.365-7.515-7.515-7.515H244.506z"/>
<path d="M283.554,71.64V55.609c0-4.15-3.365-7.515-7.515-7.515s-7.515,3.365-7.515,7.515V71.64c0,4.15,3.365,7.515,7.515,7.515
	S283.554,75.79,283.554,71.64z"/>
<path d="M185.706,112.169c3.057,3.056,8.216,2.851,11.027-0.431c2.519-2.941,2.337-7.461-0.4-10.196l-11.335-11.336
	c-2.935-2.935-7.693-2.935-10.627,0c-2.935,2.935-2.935,7.693,0,10.627L185.706,112.169z"/>
<path d="M155.805,184.36h-16.031c-4.15,0-7.515,3.365-7.515,7.515s3.365,7.515,7.515,7.515h16.031c4.15,0,7.515-3.365,7.515-7.515
	S159.955,184.36,155.805,184.36z"/>
<path d="M185.706,271.58l-11.335,11.335c-2.736,2.735-2.918,7.255-0.4,10.196c2.81,3.281,7.97,3.488,11.027,0.431l11.335-11.335
	c2.935-2.935,2.935-7.693,0-10.627C193.399,268.646,188.641,268.646,185.706,271.58z"/>
<path d="M366.372,271.58c-2.935-2.935-7.693-2.935-10.627,0c-2.935,2.935-2.935,7.693,0,10.627l11.335,11.335
	c3.147,3.147,8.461,2.828,11.153-0.701c2.26-2.963,2.142-7.258-0.526-9.925L366.372,271.58z"/>
<path d="M419.82,191.875c0-4.15-3.365-7.515-7.515-7.515h-16.031c-4.15,0-7.515,3.365-7.515,7.515s3.365,7.515,7.515,7.515h16.031
	C416.456,199.389,419.82,196.025,419.82,191.875z"/>
<path d="M367.081,90.206l-11.335,11.335c-2.671,2.67-2.781,6.96-0.526,9.925c2.687,3.534,8.01,3.846,11.153,0.701l11.335-11.335
	c2.935-2.935,2.935-7.693,0-10.627C374.773,87.272,370.015,87.272,367.081,90.206z"/>
<g>
</g>
<g>
</g>
<g>
</g>
<g>
</g>
<g>
</g>
<g>
</g>
<g>
</g>
<g>
</g>
<g>
</g>
<g>
</g>
<g>
</g>
<g>
</g>
<g>
</g>
<g>
</g>
<g>
</g>
</svg>
