<svg id="Layer_35" enable-background="new 0 0 64 64" height="512" viewBox="0 0 64 64" width="512" xmlns="http://www.w3.org/2000/svg"><path d="m7.11 18 .01-.21c.56-2.73 2.98-4.79 5.88-4.79.36 0 .71.04 1.05.1.45-4.55 4.28-8.1 8.95-8.1 2.1 0 4.02.71 5.54 1.92-2.12 1.2-3.54 3.47-3.54 6.08 0 3.87 3.13 7 7 7h-5c-4.85 0-8.89 3.46-9.81 8.04l-.24-.04h-9.87c-2.76 0-5-2.24-5-5s2.24-5 5-5z" fill="#e6e9ed"/><path d="m57 12c2.76 0 5 2.24 5 5s-2.24 5-5 5h-11.01c1.26-1.67 2.01-3.75 2.01-6v-7.5c0-.69-.28-1.32-.73-1.77s-1.08-.73-1.77-.73c-1.38 0-2.5 1.12-2.5 2.5v6.5c0 2.76-2.24 5-5 5h-6c3.87 0 7-3.13 7-7 0-1.6-.53-3.07-1.45-4.25 1.34-3.93 5.07-6.75 9.45-6.75 5.52 0 10 4.48 10 10z" fill="#e6e9ed"/><path d="m26 41v13.05c-2.03.29-2.24 1.95-4.67 1.95-2.66 0-2.66-2-5.33-2h-1l3.74-14.12c.24.08.49.12.76.12 1.38 0 2.5-1.12 2.5-2.5v-7.5c0-1.1.45-2.1 1.17-2.83.73-.72 1.73-1.17 2.83-1.17z" fill="#ff826e"/><path d="m40.66 25.64 8.34 28.36h-1c-2.67 0-2.67 2-5.34 2-2.42 0-2.64-1.65-4.66-1.95v-13.05-15c.92 0 1.81-.12 2.66-.36z" fill="#ff826e"/><path d="m38 54.05v4.99c0 1.64-1.32 2.96-2.95 2.96-.03 0-.07 0-.1 0-1.63 0-2.94-1.31-2.95-2.95v-.01-20.04h6z" fill="#838f9b"/><path d="m32 59.04v.01c0 1.63-1.32 2.95-2.95 2.95-.03 0-.06 0-.09 0-1.64 0-2.96-1.32-2.96-2.95v-5-15.05h6z" fill="#838f9b"/><path d="m45.99 22c-1.3 1.75-3.17 3.05-5.33 3.64-.85.24-1.74.36-2.66.36v13h-6-6v-13c-1.1 0-2.1.45-2.83 1.17-.72.73-1.17 1.73-1.17 2.83v7.5c0 1.38-1.12 2.5-2.5 2.5-.27 0-.52-.04-.76-.12-.39-.12-.73-.33-1.01-.61-.45-.45-.73-1.08-.73-1.77v-7.5c0-.67.07-1.33.19-1.96.92-4.58 4.96-8.04 9.81-8.04h5 6c2.76 0 5-2.24 5-5v-6.5c0-1.38 1.12-2.5 2.5-2.5.69 0 1.32.28 1.77.73s.73 1.08.73 1.77v7.5c0 2.25-.75 4.33-2.01 6z" fill="#fcd770"/><path d="m37.55 8.75c.92 1.18 1.45 2.65 1.45 4.25 0 3.87-3.13 7-7 7s-7-3.13-7-7c0-2.61 1.42-4.88 3.54-6.08 1.02-.59 2.2-.92 3.46-.92 2.27 0 4.29 1.08 5.55 2.75z" fill="#f0d0b4"/><path d="m46.465 23h10.535c3.309 0 6-2.691 6-6 0-2.983-2.191-5.458-5.046-5.917-.469-5.637-5.198-10.083-10.954-10.083-4.167 0-7.912 2.336-9.776 5.955-1.403-1.215-3.227-1.955-5.224-1.955-1.2 0-2.334.273-3.356.748-1.654-1.13-3.63-1.748-5.644-1.748-4.822 0-8.872 3.376-9.801 8.003-3.225-.086-6.053 2.034-6.923 5.057-2.929.396-5.195 2.905-5.195 5.94 0 3.309 2.691 6 6 6h8.97c-.03.33-.051.662-.051 1v7.5c0 1.213.622 2.283 1.562 2.911l-3.861 14.589h2.299c1 0 1.446.335 2.065.8.712.535 1.599 1.2 3.265 1.2 1.667 0 2.553-.666 3.266-1.2.14-.105.273-.202.405-.292v3.538c0 2.18 1.774 3.954 4.044 3.954 1.173 0 2.228-.513 2.953-1.327.051.057.104.113.159.168.747.747 1.739 1.158 2.886 1.158h.001c2.18 0 3.954-1.774 3.954-3.954v-3.53c.128.088.258.183.394.285.713.535 1.601 1.2 3.269 1.2s2.555-.666 3.269-1.2c.621-.465 1.069-.8 2.07-.8h2.336l-8.445-28.716c1.799-.682 3.367-1.827 4.574-3.284zm-8.465 2h-1v13h-9.999l-.001-13h-1c-2.757 0-5 2.243-5 5v7.5c0 .827-.673 1.5-1.5 1.5s-1.5-.673-1.5-1.5v-7.5c0-4.962 4.038-9 9-9h11c3.309 0 6-2.691 6-6v-6.5c0-.827.673-1.5 1.5-1.5s1.5.673 1.5 1.5v7.5c0 4.962-4.038 9-9 9zm9-22c4.658 0 8.5 3.557 8.954 8.097-2.811.497-4.954 2.952-4.954 5.903h2c0-2.206 1.794-4 4-4s4 1.794 4 4-1.794 4-4 4h-9.205c.77-1.501 1.205-3.201 1.205-5v-7.5c0-1.93-1.57-3.5-3.5-3.5s-3.5 1.57-3.5 3.5v6.5c0 2.206-1.794 4-4 4h-.726c1.667-1.467 2.726-3.61 2.726-6 0-1.627-.491-3.141-1.329-4.405 1.375-3.368 4.65-5.595 8.329-5.595zm-9 10c0 3.309-2.691 6-6 6s-6-2.691-6-6 2.691-6 6-6 6 2.691 6 6zm-21.574 14h-9.345c-2.206 0-4-1.794-4-4s1.794-4 4-4 4 1.794 4 4h2c0-2.87-2.026-5.272-4.722-5.86.747-1.861 2.577-3.14 4.641-3.14.274 0 .559.027.873.082l1.061.186.107-1.072c.408-4.102 3.83-7.196 7.959-7.196 1.344 0 2.628.328 3.781.95-1.699 1.468-2.781 3.633-2.781 6.05 0 2.397 1.065 4.546 2.741 6.013-4.91.115-9.027 3.457-10.315 7.987zm6.97 27.2c-.619.464-1.066.8-2.066.8-.999 0-1.446-.335-2.065-.8-.669-.502-1.491-1.119-2.968-1.193l3.179-12.01c.008 0 .016.002.024.002 1.93 0 3.5-1.57 3.5-3.5v-7.499c0-1.304.836-2.416 2-2.829l.002 26.101c-.687.245-1.186.613-1.606.928zm7.604 4.845c0 1.078-.876 1.955-2.044 1.955-1.078 0-1.954-.876-1.954-1.954l-.001-19.046h3.999zm3.954 1.954c-.522 0-1.013-.203-1.381-.572-.37-.369-.573-.86-.573-1.382v-19.045h4v19.045c0 1.078-.876 1.954-2.046 1.954zm12.712-7.99c-1.455.082-2.27.693-2.934 1.19-.62.465-1.068.8-2.069.8s-1.449-.335-2.069-.8c-.417-.313-.914-.677-1.594-.922v-26.322c.326-.029.647-.076.964-.134z"/><path d="m32.949 23.316-1.898-.632-2.438 7.316h3.769l-3.277 6.553 1.79.894 4.723-9.447h-4.231z"/><path d="m49 27h2v2h-2z"/><path d="m46 30h2v2h-2z"/><path d="m49 33h2v2h-2z"/><path d="m52 30h2v2h-2z"/><path d="m7 37h2v2h-2z"/><path d="m4 40h2v2h-2z"/><path d="m7 43h2v2h-2z"/><path d="m10 40h2v2h-2z"/><path d="m53 44h2v2h-2z"/><path d="m50 47h2v2h-2z"/><path d="m53 50h2v2h-2z"/><path d="m56 47h2v2h-2z"/><path d="m58 35h2v2h-2z"/><path d="m55 38h2v2h-2z"/><path d="m58 41h2v2h-2z"/><path d="m61 38h2v2h-2z"/></svg>