<?xml version="1.0" encoding="iso-8859-1"?>
<!-- Generator: Adobe Illustrator 19.0.0, SVG Export Plug-In . SVG Version: 6.00 Build 0)  -->
<svg version="1.1" id="Capa_1" xmlns="http://www.w3.org/2000/svg" xmlns:xlink="http://www.w3.org/1999/xlink" x="0px" y="0px"
	 viewBox="0 0 496 496" style="enable-background:new 0 0 496 496;" xml:space="preserve">
<path style="fill:#8C95A4;" d="M488,304V192l-58.232-5.824c-2.688-7.912-5.856-15.592-9.512-23l37.048-45.28l-79.2-79.192
	l-45.28,37.048c-7.408-3.656-15.096-6.824-23-9.512L304,8H192l-5.824,58.232c-7.912,2.688-15.592,5.856-23,9.512l-45.28-37.048
	l-79.2,79.192l37.048,45.28c-3.656,7.408-6.824,15.096-9.512,23L8,192v112l58.232,5.824c2.688,7.912,5.856,15.592,9.512,23
	l-37.048,45.28l79.2,79.2l45.28-37.048c7.408,3.656,15.096,6.824,23,9.512L192,488h112l5.824-58.232
	c7.912-2.688,15.592-5.856,23-9.512l45.28,37.048l79.2-79.2l-37.048-45.28c3.656-7.408,6.824-15.096,9.512-23L488,304z"/>
<circle style="fill:#ECECEC;" cx="248" cy="248" r="160"/>
<path style="fill:#FB5968;" d="M248,392L135.192,279.192C120.336,264.336,112,244.2,112,223.192l0,0
	C112,179.456,147.456,144,191.192,144l0,0c21.008,0,41.144,8.344,56,23.192L248,168l0.808-0.808
	c14.856-14.856,34.992-23.192,56-23.192l0,0C348.544,144,384,179.456,384,223.192l0,0c0,21.008-8.344,41.144-23.192,56L248,392z"/>
<path style="fill:#CD2C5A;" d="M304.808,144c-4.04,0-8.032,0.4-11.984,1.008c38.016,5.8,67.176,38.544,67.176,78.184
	c0,21-8.344,41.144-23.192,56L236,380l12,12l112.808-112.808c14.856-14.856,23.192-35,23.192-56
	C384,179.456,348.544,144,304.808,144z"/>
<path d="M496,311.24V184.76l-60.392-6.04c-1.808-4.896-3.792-9.712-5.944-14.4l38.416-46.968L378.648,27.92l-46.96,38.424
	c-4.68-2.16-9.504-4.152-14.416-5.96L311.24,0H184.76l-6.032,60.384c-4.904,1.808-9.736,3.8-14.416,5.96l-46.96-38.424
	L27.92,117.352l38.416,46.968c-2.16,4.688-4.144,9.504-5.944,14.4L0,184.76v126.48l60.392,6.04c1.808,4.896,3.792,9.712,5.944,14.4
	L27.92,378.648l89.432,89.432l46.96-38.424c4.68,2.16,9.504,4.152,14.416,5.96L184.76,496h126.488l6.032-60.384
	c4.904-1.808,9.736-3.8,14.416-5.96l46.96,38.424l89.424-89.432l-38.416-46.968c2.16-4.688,4.144-9.504,5.944-14.4L496,311.24z
	 M446.528,377.568l-68.96,68.96L333.904,410.8l-4.616,2.28c-7.024,3.464-14.44,6.528-22.048,9.12l-4.864,1.656L296.76,480h-97.52
	l-5.616-56.152l-4.864-1.656c-7.608-2.584-15.024-5.656-22.048-9.12l-4.616-2.28l-43.664,35.728l-68.96-68.96L85.2,333.896
	l-2.272-4.616c-3.472-7.04-6.536-14.456-9.112-22.04l-1.656-4.872L16,296.76v-97.52l56.16-5.616l1.656-4.872
	c2.568-7.584,5.64-15,9.112-22.04l2.272-4.616l-35.728-43.664l68.96-68.96L162.096,85.2l4.616-2.28
	c7.024-3.464,14.44-6.528,22.048-9.12l4.864-1.656L199.24,16h97.512l5.616,56.152l4.864,1.656c7.608,2.584,15.024,5.656,22.048,9.12
	l4.616,2.28L377.56,49.48l68.96,68.96l-35.728,43.664l2.272,4.616c3.472,7.04,6.536,14.456,9.112,22.04l1.656,4.872L480,199.24
	v97.52l-56.16,5.616l-1.656,4.872c-2.568,7.584-5.64,15-9.112,22.04l-2.272,4.616L446.528,377.568z"/>
<path d="M304.808,136c-21.072,0-41,7.424-56.808,21.032C232.192,143.424,212.264,136,191.192,136C143.12,136,104,175.12,104,223.192
	c0,23.296,9.072,45.184,25.536,61.656L248,403.312l118.464-118.464C382.928,268.384,392,246.488,392,223.192
	C392,175.12,352.88,136,304.808,136z M355.152,273.536L248,380.688L140.848,273.536C127.408,260.088,120,242.208,120,223.192
	C120,183.936,151.936,152,191.192,152c19.016,0,36.896,7.408,50.344,20.848l6.464,6.464l6.464-6.464
	c13.44-13.44,31.328-20.848,50.344-20.848C344.064,152,376,183.936,376,223.192C376,242.208,368.592,260.088,355.152,273.536z"/>
<rect x="240" y="56" width="16" height="16"/>
<rect x="109.893" y="109.894" transform="matrix(-0.7071 0.7071 -0.7071 -0.7071 284.6184 117.8945)" width="16" height="16"/>
<rect x="56" y="240" width="16" height="16"/>
<rect x="109.875" y="370.113" transform="matrix(-0.7072 0.707 -0.707 -0.7072 468.5646 562.1789)" width="16" height="16"/>
<rect x="240" y="424" width="16" height="16"/>
<rect x="370.066" y="370.08" transform="matrix(-0.7071 0.7071 -0.7071 -0.7071 912.7425 378.0897)" width="16" height="16"/>
<rect x="424" y="240" width="16" height="16"/>
<rect x="370.044" y="109.907" transform="matrix(-0.7072 0.707 -0.707 -0.7072 728.7608 -65.9881)" width="16" height="16"/>
<g>
</g>
<g>
</g>
<g>
</g>
<g>
</g>
<g>
</g>
<g>
</g>
<g>
</g>
<g>
</g>
<g>
</g>
<g>
</g>
<g>
</g>
<g>
</g>
<g>
</g>
<g>
</g>
<g>
</g>
</svg>
